<svg width="301" height="244" viewBox="0 0 301 244" fill="none" xmlns="http://www.w3.org/2000/svg">
<path d="M73.1239 126.786C64.847 133.058 57.0162 139.899 49.6882 147.258C15.1539 181.793 -2.33177 220.273 10.6125 233.23C23.5568 246.174 62.0497 228.676 96.5718 194.154C103.931 186.822 110.772 178.987 117.045 170.706" stroke="#D4E157" stroke-width="8.76602" stroke-linecap="round" stroke-linejoin="round"/>
<path d="M117.045 170.706C137.408 197.736 145.702 223.163 135.648 233.217C122.691 246.174 84.2105 228.676 49.6762 194.154C15.1662 159.607 -2.31953 121.139 10.6248 108.182C20.679 98.1401 46.1062 106.434 73.1362 126.785" stroke="#D4E157" stroke-width="8.76602" stroke-linecap="round" stroke-linejoin="round"/>
<path d="M67.0524 170.706C67.0524 172.316 67.692 173.86 68.8306 174.999C69.9693 176.138 71.5136 176.777 73.1238 176.777C74.734 176.777 76.2783 176.138 77.417 174.999C78.5556 173.86 79.1952 172.316 79.1952 170.706C79.1952 169.096 78.5556 167.551 77.417 166.413C76.2783 165.274 74.734 164.634 73.1238 164.634C71.5136 164.634 69.9693 165.274 68.8306 166.413C67.692 167.551 67.0524 169.096 67.0524 170.706ZM97.5309 117.836C93.7059 117.168 93.7059 111.692 97.5309 111.036C104.287 109.861 110.539 106.7 115.492 101.958C120.444 97.2151 123.872 91.105 125.338 84.4066L125.557 83.3502C126.382 79.5859 131.75 79.5616 132.6 83.3137L132.891 84.5402C134.412 91.2089 137.87 97.2795 142.83 101.989C147.791 106.699 154.032 109.838 160.771 111.012C164.608 111.679 164.608 117.192 160.771 117.848C154.032 119.022 147.791 122.161 142.83 126.87C137.87 131.58 134.412 137.651 132.891 144.319L132.6 145.546C131.75 149.31 126.382 149.286 125.557 145.522L125.314 144.465C123.848 137.767 120.42 131.657 115.467 126.914C110.515 122.171 104.262 119.011 97.5067 117.836H97.5309Z" stroke="#D4E157" stroke-width="8.76602" stroke-linecap="round" stroke-linejoin="round"/>
<path d="M272.25 38.3334H267.458V33.5417C267.458 20.3311 256.711 9.58337 243.5 9.58337C230.289 9.58337 219.542 20.3311 219.542 33.5417V38.3334H214.75C212.208 38.3334 209.771 39.343 207.974 41.1403C206.176 42.9375 205.167 45.375 205.167 47.9167V95.8334C205.167 98.375 206.176 100.813 207.974 102.61C209.771 104.407 212.208 105.417 214.75 105.417H272.25C274.792 105.417 277.229 104.407 279.026 102.61C280.824 100.813 281.833 98.375 281.833 95.8334V47.9167C281.833 45.375 280.824 42.9375 279.026 41.1403C277.229 39.343 274.792 38.3334 272.25 38.3334ZM229.125 33.5417C229.125 25.6163 235.575 19.1667 243.5 19.1667C251.425 19.1667 257.875 25.6163 257.875 33.5417V38.3334H229.125V33.5417ZM248.292 75.3394V86.25H238.708V75.3394C235.857 73.6815 233.917 70.6244 233.917 67.0834C233.917 64.5417 234.926 62.1042 236.724 60.3069C238.521 58.5097 240.958 57.5 243.5 57.5C246.042 57.5 248.479 58.5097 250.276 60.3069C252.074 62.1042 253.083 64.5417 253.083 67.0834C253.083 70.6196 251.143 73.6767 248.292 75.3394Z" fill="#004D40"/>
<path d="M206.75 163.667C206.75 156.024 212.94 149.833 220.583 149.833C228.226 149.833 234.417 156.024 234.417 163.667C234.417 171.31 228.226 177.5 220.583 177.5C212.94 177.5 206.75 171.31 206.75 163.667ZM227.5 198.942C227.5 195.622 229.229 192.509 231.65 190.434V189.604C231.65 188.255 231.892 186.976 232.272 185.731C228.71 184.901 224.768 184.417 220.583 184.417C205.297 184.417 192.917 190.607 192.917 198.25V205.167H227.5V198.942ZM262.083 199.288V211.392C262.083 213.467 260.008 215.542 257.587 215.542H238.567C236.492 215.542 234.417 213.467 234.417 211.046V198.942C234.417 196.867 236.492 194.792 238.567 194.792V189.604C238.567 184.763 243.408 180.958 248.25 180.958C253.092 180.958 257.933 184.763 257.933 189.604V194.792C260.008 194.792 262.083 196.867 262.083 199.288ZM253.437 189.604C253.437 186.838 251.017 185.108 248.25 185.108C245.483 185.108 243.062 186.838 243.062 189.604V194.792H253.437V189.604Z" fill="#009688"/>
</svg>
