<svg width="156" height="156" viewBox="0 0 156 156" fill="none" xmlns="http://www.w3.org/2000/svg">
<path d="M32.2713 55.2321C28.3545 49.7561 33.364 42.3626 39.9019 43.9701L55.1748 47.7253C66.5045 50.511 78.4858 48.208 87.9754 41.4206L100.768 32.2708C106.244 28.3541 113.637 33.3635 112.03 39.9014L108.275 55.1743C105.489 66.504 107.792 78.4853 114.579 87.975L123.729 100.767C127.646 106.243 122.636 113.637 116.099 112.029L100.826 108.274C89.4959 105.488 77.5146 107.791 68.025 114.579L55.2326 123.729C49.7565 127.645 42.3631 122.636 43.9706 116.098L47.7258 100.825C50.5115 89.4954 48.2085 77.5141 41.421 68.0245L32.2713 55.2321Z" stroke="#9575CD" stroke-width="0.40901"/>
<path d="M28.5099 65.34C23.5307 60.8083 26.8762 52.5279 33.6059 52.7269L49.3268 53.1918C60.9889 53.5367 72.2196 48.7695 80.0727 40.1409L90.6589 28.5094C95.1906 23.5302 103.471 26.8757 103.272 33.6054L102.807 49.3263C102.462 60.9883 107.229 72.2191 115.858 80.0721L127.49 90.6584C132.469 95.19 129.123 103.47 122.394 103.271L106.673 102.807C95.0106 102.462 83.7798 107.229 75.9268 115.857L65.3405 127.489C60.8089 132.468 52.5284 129.123 52.7275 122.393L53.1923 106.672C53.5372 95.01 48.77 83.7793 40.1415 75.9262L28.5099 65.34Z" stroke="#90CAF9" stroke-width="0.40901"/>
<path d="M49.7811 35.4176C49.1271 28.7168 57.1621 24.8186 62.0204 29.4797L73.3695 40.3683C81.7885 48.4456 93.3161 52.4418 104.928 51.3085L120.581 49.7808C127.282 49.1268 131.18 57.1619 126.519 62.0201L115.631 73.3692C107.553 81.7882 103.557 93.3158 104.691 104.928L106.218 120.581C106.872 127.282 98.8372 131.18 93.979 126.519L82.6299 115.631C74.2109 107.553 62.6833 103.557 51.0713 104.69L35.4179 106.218C28.7171 106.872 24.8189 98.8369 29.48 93.9787L40.3685 82.6296C48.4459 74.2106 52.4421 62.683 51.3088 51.071L49.7811 35.4176Z" stroke="#9575CD" stroke-width="0.40901"/>
<path d="M41.4702 42.292C39.4239 35.8778 46.4614 30.3795 52.19 33.9167L65.5722 42.1798C75.4994 48.3095 87.6091 49.7964 98.7244 46.2503L113.708 41.4702C120.122 39.424 125.621 46.4615 122.083 52.19L113.82 65.5723C107.691 75.4995 106.204 87.6092 109.75 98.7244L114.53 113.708C116.576 120.122 109.539 125.621 103.81 122.083L90.4278 113.82C80.5006 107.691 68.3909 106.204 57.2756 109.75L42.2919 114.53C35.8778 116.576 30.3795 109.539 33.9167 103.81L42.1797 90.4278C48.3094 80.5006 49.7963 68.3909 46.2503 57.2757L41.4702 42.292Z" stroke="#90CAF9" stroke-width="0.40901"/>
<path d="M74.8525 27.0143C77.6366 20.8842 86.5442 21.5258 88.421 27.9916L92.8054 43.0958C96.0578 54.3005 104.043 63.5251 114.666 68.3497L128.986 74.8533C135.116 77.6374 134.474 86.545 128.009 88.4218L112.904 92.8062C101.7 96.0586 92.475 104.044 87.6504 114.667L81.1468 128.987C78.3627 135.117 69.4551 134.475 67.5783 128.009L63.1939 112.905C59.9415 101.7 51.9564 92.4758 41.3335 87.6512L27.0135 81.1476C20.8834 78.3636 21.525 69.4559 27.9907 67.5791L43.095 63.1947C54.2997 59.9423 63.5243 51.9573 68.3489 41.3343L74.8525 27.0143Z" stroke="#9575CD" stroke-width="0.40901"/>
<path d="M64.2183 28.8111C65.6533 22.2332 74.4971 20.9903 77.6896 26.9179L85.1474 40.765C90.6798 51.0371 100.424 58.3796 111.823 60.8663L127.189 64.2184C133.767 65.6534 135.01 74.4972 129.082 77.6897L115.235 85.1475C104.963 90.6799 97.6206 100.424 95.1339 111.823L91.7818 127.189C90.3468 133.767 81.503 135.01 78.3105 129.082L70.8527 115.235C65.3203 104.963 55.5765 97.6207 44.1774 95.134L28.811 91.7819C22.2331 90.3469 20.9902 81.5031 26.9178 78.3106L40.7649 70.8528C51.037 65.3204 58.3795 55.5766 60.8662 44.1775L64.2183 28.8111Z" stroke="#90CAF9" stroke-width="0.40901"/>
<path d="M61.7638 29.5656C62.8664 22.9239 71.6365 21.2382 75.1229 26.9978L83.2671 40.4527C89.3087 50.4338 99.4092 57.2774 110.919 59.1882L126.434 61.7639C133.076 62.8665 134.762 71.6367 129.002 75.123L115.547 83.2672C105.566 89.3088 98.7224 99.4093 96.8117 110.919L94.236 126.434C93.1334 133.076 84.3632 134.762 80.8769 129.002L72.7326 115.547C66.6911 105.566 56.5906 98.7226 45.0809 96.8118L29.5655 94.2361C22.9238 93.1335 21.2381 84.3633 26.9977 80.877L40.4526 72.7327C50.4337 66.6912 57.2773 56.5907 59.188 45.081L61.7638 29.5656Z" stroke="#9575CD" stroke-width="0.40901"/>
<path d="M51.9569 34.0543C51.6404 27.3291 59.8612 23.8396 64.4791 28.7389L75.2667 40.184C83.2692 48.6742 94.5814 53.2446 106.236 52.6963L121.946 51.9571C128.671 51.6407 132.161 59.8614 127.261 64.4793L115.816 75.2669C107.326 83.2694 102.756 94.5816 103.304 106.236L104.043 121.946C104.36 128.671 96.1389 132.161 91.521 127.262L80.7334 115.817C72.7309 107.326 61.4187 102.756 49.7644 103.304L34.0541 104.043C27.3289 104.36 23.8394 96.1391 28.7387 91.5212L40.1838 80.7336C48.674 72.7312 53.2444 61.4189 52.6961 49.7647L51.9569 34.0543Z" stroke="#90CAF9" stroke-width="0.40901"/>
<circle cx="78.4371" cy="77.2641" r="29.4856" stroke="#9575CD" stroke-width="1.36842"/>
</svg>
