<svg width="63" height="63" viewBox="0 0 63 63" fill="none" xmlns="http://www.w3.org/2000/svg">
<path d="M13.0806 22.2708C11.5307 20.1038 13.513 17.1781 16.1001 17.8142L22.268 19.3308C26.8602 20.4598 31.7165 19.5264 35.5628 16.7753L40.729 13.0802C42.8959 11.5303 45.8216 13.5126 45.1855 16.0997L43.669 22.2676C42.5399 26.8598 43.4733 31.7161 46.2244 35.5625L49.9195 40.7286C51.4694 42.8956 49.4871 45.8212 46.9 45.1851L40.7321 43.6686C36.1399 42.5395 31.2836 43.473 27.4373 46.2241L22.2711 49.9191C20.1042 51.469 17.1785 49.4867 17.8146 46.8996L19.3311 40.7317C20.4602 36.1395 19.5268 31.2833 16.7757 27.4369L13.0806 22.2708Z" stroke="#9575CD" stroke-width="0.283161"/>
<path d="M11.5533 26.3439C9.583 24.5507 10.9069 21.274 13.5699 21.3528L19.9187 21.5405C24.6456 21.6803 29.1977 19.7481 32.3807 16.2507L36.6559 11.5534C38.4491 9.58304 41.7258 10.9069 41.647 13.5699L41.4593 19.9187C41.3195 24.6456 43.2517 29.1977 46.7491 32.3807L51.4465 36.6559C53.4168 38.4492 52.0929 41.7258 49.4299 41.6471L43.0811 41.4593C38.3542 41.3195 33.8021 43.2518 30.6191 46.7491L26.3439 51.4465C24.5507 53.4168 21.274 52.093 21.3527 49.4299L21.5405 43.0811C21.6803 38.3542 19.748 33.8022 16.2507 30.6191L11.5533 26.3439Z" stroke="#90CAF9" stroke-width="0.283161"/>
<path d="M20.1626 14.2978C19.9038 11.6462 23.0834 10.1037 25.0058 11.9481L29.5891 16.3454C33.0015 19.6193 37.6739 21.2391 42.3805 20.7797L48.7021 20.1628C51.3537 19.904 52.8962 23.0835 51.0518 25.006L46.6545 29.5893C43.3806 33.0017 41.7608 37.6741 42.2202 42.3807L42.8371 48.7022C43.0959 51.3538 39.9163 52.8964 37.9939 51.0519L33.4106 46.6547C29.9982 43.3807 25.3258 41.761 20.6192 42.2203L14.2976 42.8373C11.6461 43.0961 10.1035 39.9165 11.948 37.994L16.3452 33.4108C19.6192 29.9984 21.2389 25.326 20.7796 20.6194L20.1626 14.2978Z" stroke="#9575CD" stroke-width="0.283161"/>
<path d="M16.8038 17.0615C15.994 14.5234 18.7789 12.3476 21.0457 13.7474L26.4501 17.0844C30.4738 19.5689 35.3821 20.1715 39.8874 18.7342L45.9385 16.8038C48.4767 15.9941 50.6524 18.7789 49.2527 21.0458L45.9157 26.4501C43.4312 30.4739 42.8285 35.3822 44.2658 39.8874L46.1962 45.9385C47.006 48.4767 44.2211 50.6524 41.9543 49.2527L36.5499 45.9157C32.5262 43.4312 27.6179 42.8286 23.1126 44.2658L17.0615 46.1963C14.5233 47.006 12.3476 44.2212 13.7473 41.9543L17.0843 36.5499C19.5688 32.5262 20.1715 27.6179 18.7342 23.1127L16.8038 17.0615Z" stroke="#90CAF9" stroke-width="0.283161"/>
<path d="M30.2826 10.934C31.3843 8.50828 34.9092 8.76216 35.6518 11.3207L37.4224 17.4205C38.7407 21.962 41.9772 25.701 46.2829 27.6565L52.066 30.2829C54.4918 31.3846 54.2379 34.9095 51.6793 35.6522L45.5795 37.4228C41.038 38.741 37.2991 41.9776 35.3436 46.2833L32.7171 52.0664C31.6154 54.4921 28.0906 54.2382 27.3479 51.6796L25.5773 45.5798C24.259 41.0383 21.0225 37.2994 16.7168 35.3439L10.9337 32.7174C8.50795 31.6158 8.76183 28.0909 11.3204 27.3482L17.4202 25.5776C21.9617 24.2593 25.7007 21.0228 27.6561 16.7171L30.2826 10.934Z" stroke="#9575CD" stroke-width="0.283161"/>
<path d="M25.992 11.6482C26.5598 9.04522 30.0594 8.55339 31.3227 10.899L34.3345 16.4911C36.5769 20.6546 40.5263 23.6307 45.1466 24.6386L51.3523 25.9924C53.9552 26.5602 54.4471 30.0598 52.1014 31.3231L46.5093 34.3349C42.3458 36.5773 39.3697 40.5267 38.3618 45.147L37.0081 51.3526C36.4403 53.9556 32.9407 54.4474 31.6773 52.1018L28.6655 46.5097C26.4231 42.3462 22.4737 39.3701 17.8534 38.3622L11.6478 37.0085C9.04483 36.4407 8.553 32.941 10.8986 31.6777L16.4907 28.6659C20.6542 26.4235 23.6303 22.4741 24.6382 17.8538L25.992 11.6482Z" stroke="#90CAF9" stroke-width="0.283161"/>
<path d="M25.0013 11.9496C25.4376 9.32143 28.9081 8.65436 30.2877 10.9335L33.5767 16.3672C36.0254 20.4128 40.1194 23.1866 44.7845 23.9611L51.0503 25.0013C53.6786 25.4376 54.3456 28.9081 52.0665 30.2877L46.6328 33.5767C42.5872 36.0255 39.8133 40.1194 39.0389 44.7845L37.9987 51.0504C37.5624 53.6786 34.0919 54.3456 32.7123 52.0665L29.4233 46.6328C26.9745 42.5872 22.8806 39.8134 18.2155 39.0389L11.9496 37.9987C9.32141 37.5624 8.65434 34.0919 10.9335 32.7123L16.3672 29.4233C20.4128 26.9745 23.1866 22.8806 23.9611 18.2155L25.0013 11.9496Z" stroke="#9575CD" stroke-width="0.283161"/>
<path d="M21.0415 13.7499C20.9163 11.0886 24.1693 9.70779 25.9967 11.6465L30.3532 16.2686C33.5968 19.7098 38.1819 21.5623 42.9056 21.3401L49.2502 21.0415C51.9114 20.9163 53.2923 24.1694 51.3536 25.9967L46.7315 30.3533C43.2902 33.5968 41.4378 38.1819 41.66 42.9057L41.9585 49.2502C42.0837 51.9115 38.8307 53.2923 37.0033 51.3536L32.6468 46.7315C29.4032 43.2903 24.8181 41.4378 20.0944 41.66L13.7498 41.9586C11.0886 42.0838 9.70775 38.8307 11.6465 37.0034L16.2685 32.6468C19.7098 29.4033 21.5623 24.8182 21.34 20.0944L21.0415 13.7499Z" stroke="#90CAF9" stroke-width="0.283161"/>
<circle cx="31.6765" cy="31.203" r="11.7103" stroke="#9575CD" stroke-width="0.947368"/>
</svg>
