<svg width="24" height="24" viewBox="0 0 24 24" fill="none" xmlns="http://www.w3.org/2000/svg">
<path d="M19.7 17.6001C19.6 17.4001 19.5 17.2001 19.5 17.0001C19.5 16.6001 19.3 16.3001 19 16.0001C18.9 15.9001 18.7 15.8001 18.6 15.8001C19.2 14.0001 18.3 12.2001 17.3 10.9001C16.5 9.70014 15.3 8.80014 15.4 7.20014C15.4 5.30014 15.6 1.80014 12.1 2.10014C8.5 2.30014 9.5 6.00014 9.4 7.30014C9.4 8.40014 8.9 9.50014 8.1 10.4001C7.9 10.6001 7.7 10.9001 7.6 11.1001C6.6 12.3001 6.1 13.9001 6.1 15.4001C5.9 15.6001 5.7 15.8001 5.6 16.0001C5.5 16.1001 5.4 16.2001 5.4 16.3001C5.3 16.4001 5.1 16.5001 4.9 16.6001C4.5 16.7001 4.2 16.9001 4 17.3001C3.9 17.6001 3.8 18.0001 3.9 18.4001C4 18.6001 4 18.8001 3.9 19.1001C3.7 19.5001 3.7 20.0001 3.9 20.5001C4.2 20.9001 4.7 21.0001 5.4 21.1001C5.9 21.1001 6.5 21.3001 7 21.5001C7.5 21.8001 8.1 22.0001 8.7 22.0001C9 22.0001 9.4 21.9001 9.7 21.8001C10 21.6001 10.2 21.4001 10.3 21.1001C10.7 21.1001 11.3 20.9001 12 20.9001C12.6 20.9001 13.2 21.1001 14 21.0001C14 21.1001 14 21.2001 14.1 21.3001C14.3 21.8001 14.8 22.2001 15.4 22.3001H15.6C16.4 22.2001 17.2 21.8001 17.7 21.2001C18.1 20.8001 18.6 20.5001 19.1 20.3001C19.7 20.0001 20.1 19.8001 20.2 19.3001C20.3 18.6001 20.1 18.2001 19.7 17.6001ZM12.8 4.80014C13.4 4.90014 13.9 5.40014 13.8 6.00014C13.8 6.30014 13.7 6.60014 13.5 6.90014H13.4C13.2 6.80014 13.1 6.80014 13 6.70014C13.1 6.60014 13.1 6.40014 13.2 6.20014C13.2 5.80014 13 5.50014 12.8 5.50014C12.5 5.50014 12.3 5.80014 12.3 6.20014V6.30014C12.2 6.20014 12 6.20014 11.9 6.10014V6.00014C11.8 5.50014 12.2 4.90014 12.8 4.80014ZM12.5 6.80014C12.6 6.90014 12.8 7.00014 12.9 7.00014C13 7.00014 13.2 7.10014 13.3 7.20014C13.5 7.30014 13.7 7.40014 13.7 7.70014C13.7 8.00014 13.4 8.30014 12.8 8.50014C12.6 8.60014 12.5 8.60014 12.4 8.70014C12.1 8.90014 11.8 9.00014 11.4 9.00014C11.1 9.00014 10.8 8.80014 10.6 8.60014C10.5 8.50014 10.4 8.40014 10.2 8.30014C10.1 8.20014 9.9 8.00014 9.8 7.70014C9.8 7.60014 9.9 7.50014 10 7.40014C10.3 7.20014 10.4 7.10014 10.5 7.00014L10.6 6.90014C10.8 6.60014 11.2 6.40014 11.6 6.40014C11.9 6.50014 12.2 6.60014 12.5 6.80014ZM10.4 5.00014C10.8 5.00014 11.1 5.40014 11.2 6.10014V6.30014C11.1 6.30014 10.9 6.40014 10.8 6.50014V6.30014C10.8 6.00014 10.6 5.70014 10.4 5.80014C10.2 5.80014 10.1 6.10014 10.1 6.40014C10.1 6.60014 10.2 6.70014 10.3 6.80014C10.3 6.80014 10.2 6.90014 10.1 6.90014C9.9 6.70014 9.7 6.40014 9.7 6.10014C9.7 5.50014 10 5.00014 10.4 5.00014ZM9.4 21.1001C8.7 21.4001 7.8 21.3001 7.2 20.9001C6.6 20.6001 6.1 20.5001 5.4 20.5001C4.9 20.4001 4.4 20.4001 4.3 20.2001C4.2 20.0001 4.2 19.7001 4.4 19.2001C4.5 18.9001 4.5 18.6001 4.4 18.3001C4.3 18.0001 4.3 17.8001 4.4 17.5001C4.5 17.2001 4.7 17.1001 5 17.0001C5.3 16.9001 5.5 16.8001 5.7 16.6001C5.8 16.5001 5.9 16.4001 6 16.2001C6.3 15.8001 6.5 15.6001 6.8 15.6001C7.4 15.7001 7.9 16.6001 8.3 17.5001C8.5 17.8001 8.7 18.2001 9 18.5001C9.4 19.0001 9.9 19.7001 9.9 20.1001C9.9 20.6001 9.7 20.9001 9.4 21.1001ZM14.3 18.9001C14.3 19.0001 14.3 19.0001 14.2 19.1001C13 20.0001 11.4 20.1001 10.1 19.4001L9.5 18.5001C10.4 18.4001 10.2 17.2001 8.3 16.0001C6.3 14.7001 7.7 12.3001 8.4 11.2001C8.5 11.1001 8.5 11.2001 8.1 12.0001C7.8 12.6001 7.2 14.1001 8 15.2001C8 14.4001 8.2 13.6001 8.5 12.8001C9.2 11.5001 9.7 10.0001 10 8.50014C10.1 8.60014 10.1 8.60014 10.2 8.60014C10.3 8.70014 10.4 8.80014 10.5 8.80014C10.7 9.10014 11.1 9.20014 11.4 9.20014H11.5C11.9 9.20014 12.3 9.10014 12.6 8.80014C12.7 8.70014 12.8 8.60014 13 8.60014C13.3 8.50014 13.6 8.30014 13.9 8.00014C14.3 9.30014 14.7 10.5001 15.3 11.6001C15.7 12.4001 16 13.2001 16.2 14.1001C16.5 14.1001 16.9 14.2001 17.2 14.4001C18 14.8001 18.3 15.1001 18.2 15.6001H18C18 15.3001 17.8 15.0001 17.1 14.7001C16.4 14.4001 15.8 14.4001 15.6 15.1001C15.5 15.1001 15.4 15.2001 15.3 15.2001C14.5 15.6001 14.5 16.7001 14.4 17.8001C14.5 18.2001 14.4 18.5001 14.3 18.9001ZM18.9 19.5001C18.3 19.7001 17.8 20.1001 17.4 20.6001C17 21.2001 16.3 21.6001 15.5 21.5001C15.1 21.5001 14.7 21.2001 14.6 20.8001C14.5 20.2001 14.5 19.6001 14.8 19.0001C14.9 18.6001 15 18.3001 15.1 17.9001C15.2 16.7001 15.2 16.0001 15.7 15.7001C15.7 16.2001 16 16.5001 16.4 16.7001C16.9 16.7001 17.4 16.6001 17.8 16.2001H18C18.3 16.2001 18.5 16.2001 18.7 16.4001C18.9 16.6001 19 16.9001 19 17.1001C19 17.4001 19.2 17.7001 19.3 18.0001C19.8 18.5001 19.8 18.8001 19.8 18.9001C19.7 19.1001 19.3 19.3001 18.9 19.5001ZM9.9 7.50014C9.8 7.50014 9.8 7.50014 9.8 7.60014C9.8 7.60014 9.8 7.70014 9.9 7.70014C10 7.70014 10 7.80014 10 7.80014C10.3 8.20014 10.8 8.40014 11.4 8.50014C11.9 8.40014 12.4 8.30014 12.9 7.90014L13.5 7.60014C13.6 7.60014 13.6 7.50014 13.6 7.50014C13.6 7.40014 13.6 7.40014 13.5 7.40014C13.3 7.50014 13 7.60014 12.8 7.70014C12.4 8.00014 11.9 8.20014 11.4 8.20014C10.9 8.20014 10.5 7.90014 10.2 7.60014C10.1 7.60014 10 7.50014 9.9 7.50014Z" fill="white"/>
</svg>
