<svg width="387" height="411" viewBox="0 0 387 411" fill="none" xmlns="http://www.w3.org/2000/svg">
<path fill-rule="evenodd" clip-rule="evenodd" d="M101.709 161.602L50.9422 160.101C28.9246 159.45 17.979 186.541 34.2695 201.367L71.8311 235.553C99.6287 260.852 114.987 297.033 113.875 334.603L112.374 385.371C111.723 407.388 138.814 418.334 153.641 402.043L187.826 364.482C213.126 336.684 249.307 321.326 286.877 322.437L337.644 323.939C359.662 324.59 370.607 297.498 354.317 282.672L316.755 248.486C288.957 223.187 273.6 187.006 274.711 149.436L276.212 98.6688C276.863 76.6512 249.772 65.7056 234.945 81.9961L200.76 119.558C175.46 147.355 139.28 162.713 101.709 161.602ZM50.9526 159.748C28.6078 159.088 17.4996 186.581 34.0321 201.628L71.5937 235.814C99.3152 261.044 114.631 297.126 113.523 334.593L112.022 385.36C111.361 407.705 138.855 418.813 153.901 402.281L188.087 364.719C213.317 336.997 249.399 321.682 286.866 322.79L337.633 324.291C359.978 324.952 371.087 297.458 354.554 282.411L316.992 248.225C289.271 222.995 273.955 186.914 275.063 149.446L276.564 98.6793C277.225 76.3344 249.731 65.2262 234.685 81.7587L200.499 119.32C175.269 147.042 139.187 162.358 101.72 161.25L50.9526 159.748Z" fill="#9575CD"/>
<path fill-rule="evenodd" clip-rule="evenodd" d="M81.0177 88.1837L30.2506 86.6824C8.23297 86.0313 -2.71259 113.122 13.5779 127.949L51.1395 162.135C78.9371 187.434 94.2949 223.615 93.1839 261.185L91.6826 311.952C91.0315 333.97 118.123 344.915 132.949 328.625L167.135 291.063C192.434 263.266 228.615 247.908 266.185 249.019L316.952 250.52C338.97 251.171 349.916 224.08 333.625 209.254L296.063 175.068C268.266 149.768 252.908 113.588 254.019 76.0175L255.52 25.2504C256.171 3.23271 229.08 -7.71283 214.254 8.57762L180.068 46.1393C154.769 73.9368 118.588 89.2947 81.0177 88.1837ZM30.261 86.3299C7.91618 85.6691 -3.19204 113.163 13.3405 128.21L50.9022 162.395C78.6236 187.625 93.9394 223.707 92.8314 261.175L91.3302 311.942C90.6694 334.286 118.163 345.395 133.21 328.862L167.396 291.301C192.626 263.579 228.707 248.263 266.175 249.371L316.942 250.873C339.287 251.533 350.395 224.04 333.862 208.993L296.301 174.807C268.579 149.577 253.264 113.495 254.372 76.0279L255.873 25.2608C256.534 2.91593 229.04 -8.19227 213.993 8.34027L179.807 45.9019C154.577 73.6234 118.496 88.9392 81.0281 87.8312L30.261 86.3299Z" fill="#512DA8"/>
<path fill-rule="evenodd" clip-rule="evenodd" d="M125.85 114.184L75.0825 112.682C53.0648 112.031 42.1193 139.122 58.4097 153.949L95.9714 188.135C123.769 213.434 139.127 249.615 138.016 287.185L136.514 337.952C135.863 359.97 162.955 370.915 177.781 354.625L211.967 317.063C237.266 289.266 273.447 273.908 311.017 275.019L361.784 276.52C383.802 277.171 394.747 250.08 378.457 235.254L340.895 201.068C313.098 175.768 297.74 139.588 298.851 102.017L300.352 51.2504C301.003 29.2327 273.912 18.2872 259.086 34.5776L224.9 72.1393C199.601 99.9368 163.42 115.295 125.85 114.184ZM75.0929 112.33C52.748 111.669 41.6398 139.163 58.1724 154.21L95.734 188.395C123.455 213.625 138.771 249.707 137.663 287.175L136.162 337.942C135.501 360.286 162.995 371.395 178.042 354.862L212.228 317.301C237.458 289.579 273.539 274.263 311.007 275.371L361.774 276.873C384.119 277.533 395.227 250.04 378.694 234.993L341.133 200.807C313.411 175.577 298.095 139.495 299.203 102.028L300.705 51.2608C301.365 28.9159 273.872 17.8077 258.825 34.3403L224.639 71.9019C199.409 99.6234 163.327 114.939 125.86 113.831L75.0929 112.33Z" fill="#448AFF"/>
<path fill-rule="evenodd" clip-rule="evenodd" d="M76.0177 123.53L25.2506 122.029C3.23297 121.377 -7.71259 148.469 8.57787 163.295L46.1395 197.481C73.9371 222.78 89.2949 258.961 88.1839 296.531L86.6826 347.298C86.0315 369.316 113.123 380.261 127.949 363.971L162.135 326.409C187.434 298.612 223.615 283.254 261.185 284.365L311.952 285.866C333.97 286.517 344.916 259.426 328.625 244.6L291.063 210.414C263.266 185.115 247.908 148.934 249.019 111.364L250.52 60.5966C251.171 38.5789 224.08 27.6334 209.254 43.9238L175.068 81.4855C149.769 109.283 113.588 124.641 76.0177 123.53ZM25.261 121.676C2.91618 121.015 -8.19204 148.509 8.34052 163.556L45.9022 197.742C73.6236 222.972 88.9394 259.053 87.8314 296.521L86.3302 347.288C85.6694 369.633 113.163 380.741 128.21 364.208L162.396 326.647C187.626 298.925 223.707 283.609 261.175 284.717L311.942 286.219C334.287 286.879 345.395 259.386 328.862 244.339L291.301 210.153C263.579 184.923 248.264 148.842 249.372 111.374L250.873 60.607C251.534 38.2621 224.04 27.1539 208.993 43.6865L174.807 81.2481C149.577 108.97 113.496 124.285 76.0281 123.177L25.261 121.676Z" fill="#90CAF9"/>
</svg>
