<svg width="86" height="78" viewBox="0 0 86 78" fill="none" xmlns="http://www.w3.org/2000/svg">
<g clip-path="url(#clip0_238_2764)">
<path fill-rule="evenodd" clip-rule="evenodd" d="M44.0617 5.29172C44.2306 5.19425 44.4464 5.25209 44.5439 5.42091C45.4953 7.06878 45.5626 8.64139 45.1804 10.1342C45.1831 10.2057 45.1639 10.2768 45.1255 10.3372C44.6915 11.8647 43.8031 13.3075 42.9328 14.6607C42.8764 14.7483 42.8201 14.8356 42.764 14.9226C42.7967 14.9524 42.8295 14.9822 42.8623 15.012C42.99 15.128 43.1184 15.244 43.2469 15.3601C44.3239 16.3333 45.4107 17.3153 46.1709 18.3728C47.0342 19.5738 47.5079 20.9145 47.0838 22.4972C47.0333 22.6854 46.8398 22.7972 46.6515 22.7467C46.4632 22.6963 46.3515 22.5027 46.402 22.3144C46.5727 21.6773 46.5732 21.085 46.4392 20.5197L40.312 20.5883C40.3379 21.1472 40.4923 21.6983 40.81 22.2486C40.9075 22.4174 40.8497 22.6333 40.6809 22.7307C40.5121 22.8282 40.2962 22.7704 40.1987 22.6016C39.3794 21.1826 39.49 19.765 40.0131 18.3815C40.4328 17.2713 41.1307 16.1515 41.8479 15.0393C39.6223 12.9695 37.4951 10.553 38.44 7.02652C38.4905 6.83823 38.684 6.72649 38.8723 6.77694C39.0606 6.82739 39.1723 7.02093 39.1219 7.20922C38.8284 8.30428 38.8653 9.27987 39.1334 10.1748L39.1365 10.173L44.4941 7.07976C44.3711 6.64978 44.1871 6.21484 43.9325 5.77386C43.8351 5.60504 43.8929 5.38918 44.0617 5.29172ZM44.6463 7.80702L39.4894 10.7843C39.4526 10.8056 39.4136 10.8194 39.374 10.8264C39.6103 11.3641 39.9279 11.8738 40.3023 12.3652C40.3228 12.3454 40.346 12.3277 40.3718 12.3128L44.5047 9.92667C44.6797 9.22909 44.7423 8.52426 44.6463 7.80702ZM44.179 10.9299L40.7469 12.9114C41.1976 13.4332 41.705 13.9375 42.2374 14.4366C42.2714 14.384 42.3053 14.3314 42.3391 14.2789C43.0584 13.1604 43.7372 12.0514 44.179 10.9299ZM42.3759 15.5238C42.0825 15.9801 41.8 16.4274 41.5428 16.8684L44.2343 17.2406C43.777 16.7913 43.2802 16.3421 42.7699 15.8807C42.6432 15.7661 42.5156 15.6508 42.3876 15.5345C42.3837 15.5309 42.3798 15.5274 42.3759 15.5238ZM45.0175 18.0616L41.1753 17.5302C40.9814 17.9002 40.8111 18.2667 40.6734 18.6311C40.5129 19.0555 40.3987 19.4716 40.3442 19.882L46.2002 19.8164C46.0454 19.4661 45.8414 19.1238 45.5977 18.7848C45.4221 18.5405 45.2274 18.3 45.0175 18.0616Z" fill="#78909C"/>
<path d="M45.0001 4C45.0001 6.20914 43.2093 8 41.0001 8C38.791 8 37.0001 6.20914 37.0001 4C37.0001 1.79086 38.791 0 41.0001 0C43.2093 0 45.0001 1.79086 45.0001 4Z" fill="#607D8B"/>
<path fill-rule="evenodd" clip-rule="evenodd" d="M41.0001 7C42.657 7 44.0001 5.65685 44.0001 4C44.0001 2.34315 42.657 1 41.0001 1C39.3433 1 38.0001 2.34315 38.0001 4C38.0001 5.65685 39.3433 7 41.0001 7ZM41.0001 8C43.2093 8 45.0001 6.20914 45.0001 4C45.0001 1.79086 43.2093 0 41.0001 0C38.791 0 37.0001 1.79086 37.0001 4C37.0001 6.20914 38.791 8 41.0001 8Z" fill="#78909C"/>
<rect x="8.5" y="22.5" width="69" height="55" rx="17.5" fill="#FFE082" stroke="#78909C"/>
<rect x="0.5" y="45.5" width="5" height="11" rx="1.5" fill="#FFE082" stroke="#78909C"/>
<rect x="80.5" y="45.5" width="5" height="11" rx="1.5" fill="#FFE082" stroke="#78909C"/>
<circle cx="25" cy="53" r="3" fill="#78909C"/>
<circle cx="61" cy="53" r="3" fill="#78909C"/>
<path d="M38.9999 58.2829C38.9999 57.0714 40.4646 56.4647 41.3212 57.3214L42.236 58.2361C42.9457 58.9458 44.0856 58.9793 44.8358 58.3125L45.8674 57.3956C46.6937 56.6611 47.9999 57.2477 47.9999 58.3532C47.9999 59.0061 47.509 59.5545 46.8601 59.6266L45.7085 59.7546C44.2406 59.9177 42.7592 59.9177 41.2912 59.7546L40.2095 59.6344C39.5209 59.5579 38.9999 58.9758 38.9999 58.2829Z" fill="#78909C"/>
</g>
<defs>
<clipPath id="clip0_238_2764">
<rect width="86" height="78" fill="white"/>
</clipPath>
</defs>
</svg>
